<?xml version="1.0" standalone="no"?>
<!DOCTYPE svg PUBLIC "-//W3C//DTD SVG 20010904//EN"
 "http://www.w3.org/TR/2001/REC-SVG-20010904/DTD/svg10.dtd">
<svg version="1.0" xmlns="http://www.w3.org/2000/svg" viewBox="0 0 318.000000 200.000000"
 preserveAspectRatio="xMidYMid meet">

<g transform="translate(0.000000,200.000000) scale(0.100000,-0.100000)"
fill="#000000" stroke="none">
<path style="fill: #0A4B80;" d="M3158 1983 c7 -3 16 -2 19 1 4 3 -2 6 -13 5 -11 0 -14 -3 -6 -6z"/>
<path style="fill: #0A4B80;" d="M2998 1953 c7 -3 16 -2 19 1 4 3 -2 6 -13 5 -11 0 -14 -3 -6 -6z"/>
<path style="fill: #0A4B80;" d="M3078 1933 c7 -3 16 -2 19 1 4 3 -2 6 -13 5 -11 0 -14 -3 -6 -6z"/>
<path style="fill: #0A4B80;" d="M2904 1889 c-10 -17 13 -36 27 -22 12 12 4 33 -11 33 -5 0 -12 -5
-16 -11z"/>
<path style="fill: #0A4B80;" d="M2990 1875 c0 -8 9 -15 20 -15 11 0 20 7 20 15 0 8 -9 15 -20 15 -11
0 -20 -7 -20 -15z"/>
<path style="fill: #0A4B80;" d="M3080 1860 c0 -5 7 -10 15 -10 8 0 15 5 15 10 0 6 -7 10 -15 10 -8 0
-15 -4 -15 -10z"/>
<path style="fill: #0A4B80;" d="M2814 1816 c-11 -28 4 -46 36 -46 28 0 31 3 28 28 -2 21 -9 28 -31
30 -18 2 -29 -2 -33 -12z"/>
<path style="fill: #0A4B80;" d="M3000 1805 c-10 -12 -9 -16 3 -21 17 -6 37 2 37 16 0 15 -29 19 -40
5z"/>
<path style="fill: #0A4B80;" d="M2907 1753 c-21 -20 8 -48 38 -37 25 10 18 44 -8 44 -13 0 -27 -3
-30 -7z"/>
<path style="fill: #0A4B80;" d="M420 1686 c0 -14 -85 -325 -190 -691 -104 -366 -190 -673 -190 -681
0 -12 31 -14 189 -14 172 0 190 2 195 18 3 9 44 152 91 317 47 165 90 311 96
325 10 22 18 -1 75 -195 35 -121 76 -263 90 -315 15 -52 33 -100 40 -106 8 -6
14 -19 14 -28 0 -14 21 -16 195 -16 l194 0 20 67 c11 38 52 181 91 318 39 138
75 261 81 275 9 21 22 -15 97 -276 48 -166 92 -307 99 -315 6 -8 13 -25 15
-39 l3 -25 213 -3 212 -2 0 118 c0 65 3 122 7 126 4 3 64 -50 133 -119 l127
-125 284 0 284 0 -348 348 c-191 191 -347 352 -347 357 0 6 148 158 329 339
249 249 327 333 324 347 -5 18 -19 19 -267 19 l-261 0 -124 -124 c-69 -69
-128 -123 -133 -120 -4 3 -8 59 -8 125 l0 119 -415 0 c-389 0 -415 -1 -415
-17 0 -22 -180 -665 -190 -676 -4 -4 -51 149 -106 340 l-99 348 -203 3 -202 2
0 -24z m2180 -35 c0 -19 -23 -35 -34 -24 -14 15 -5 43 14 43 13 0 20 -7 20
-19z m80 -26 c0 -8 -4 -15 -10 -15 -5 0 -10 7 -10 15 0 8 5 15 10 15 6 0 10
-7 10 -15z m-130 -75 c0 -23 -4 -30 -20 -30 -23 0 -35 22 -26 45 3 8 15 15 26
15 16 0 20 -7 20 -30z m110 -15 c0 -25 -23 -35 -35 -15 -10 16 2 40 20 40 9 0
15 -9 15 -25z"/>
<path style="fill: #0A4B80;" d="M50 197 c-34 -17 -39 -60 -9 -84 12 -10 33 -27 47 -39 32 -26 24 -54
-16 -54 -15 0 -33 5 -40 12 -9 9 -12 7 -12 -10 0 -19 5 -22 44 -22 49 0 76 19
76 51 0 19 -13 34 -69 77 -36 28 -22 55 24 50 36 -4 50 14 19 26 -23 9 -36 7
-64 -7z"/>
<path style="fill: #0A4B80;" d="M400 197 c-36 -18 -51 -55 -47 -111 5 -62 31 -86 92 -86 58 0 85 32
85 102 0 41 -5 54 -29 79 -32 31 -61 36 -101 16z m82 -34 c24 -21 25 -99 1
-125 -38 -42 -103 -4 -103 62 0 69 56 104 102 63z"/>
<path style="fill: #0A4B80;" d="M2383 200 c-57 -23 -77 -128 -33 -175 19 -20 33 -25 72 -25 35 0 48
4 48 14 0 11 -10 13 -38 9 -49 -7 -75 20 -75 77 0 56 26 83 75 78 24 -2 38 1
38 8 0 23 -47 30 -87 14z"/>
<path style="fill: #0A4B80;" d="M760 100 c0 -82 3 -100 15 -100 11 0 15 12 15 45 0 43 1 45 30 45 17
0 30 5 30 10 0 6 -13 10 -30 10 -28 0 -30 3 -30 35 0 33 2 35 35 35 19 0 35 5
35 10 0 6 -22 10 -50 10 l-50 0 0 -100z"/>
<path style="fill: #0A4B80;" d="M1060 190 c0 -5 11 -10 25 -10 25 0 25 -1 25 -90 0 -73 3 -90 15 -90
12 0 15 17 15 90 l0 90 30 0 c17 0 30 5 30 10 0 6 -30 10 -70 10 -40 0 -70 -4
-70 -10z"/>
<path style="fill: #0A4B80;" d="M1660 190 c0 -5 11 -10 25 -10 25 0 25 -1 25 -90 0 -73 3 -90 15 -90
12 0 15 17 15 90 0 89 0 90 25 90 14 0 25 5 25 10 0 6 -28 10 -65 10 -37 0
-65 -4 -65 -10z"/>
<path style="fill: #0A4B80;" d="M2010 100 l0 -100 55 0 c30 0 55 5 55 10 0 6 -18 10 -40 10 -39 0
-40 1 -40 35 0 33 2 35 35 35 19 0 35 5 35 10 0 6 -16 10 -35 10 -33 0 -35 2
-35 35 0 33 2 35 35 35 19 0 35 5 35 10 0 6 -22 10 -50 10 l-50 0 0 -100z"/>
<path style="fill: #0A4B80;" d="M2690 100 c0 -82 3 -100 15 -100 11 0 15 12 15 45 l0 45 45 0 45 0 0
-45 c0 -33 4 -45 15 -45 12 0 15 18 15 100 0 82 -3 100 -15 100 -11 0 -15 -12
-15 -46 l0 -45 -42 3 c-43 3 -43 3 -46 46 -2 28 -8 42 -18 42 -11 0 -14 -20
-14 -100z"/>
</g>
</svg>
