<?xml version="1.0" standalone="no"?>
<!DOCTYPE svg PUBLIC "-//W3C//DTD SVG 20010904//EN"
 "http://www.w3.org/TR/2001/REC-SVG-20010904/DTD/svg10.dtd">
<svg version="1.0" xmlns="http://www.w3.org/2000/svg" viewBox="0 0 320.000000 132.000000"
 preserveAspectRatio="xMidYMid meet">

<g transform="translate(0.000000,132.000000) scale(0.100000,-0.100000)"
fill="#000000" stroke="none">
<path style="fill: #e32e21;" d="M163 1144 c-13 -33 5 -161 29 -208 l24 -48 -25 -51 c-24 -48 -26 -64
-30 -210 -2 -114 0 -161 9 -172 16 -19 180 -21 198 -3 7 7 12 41 12 84 l0 71
63 5 c154 13 255 110 265 255 8 124 -63 239 -173 276 -70 24 -363 25 -372 1z
m372 -51 c118 -59 166 -207 102 -315 -48 -82 -115 -118 -218 -118 -89 0 -89 0
-89 -91 l0 -79 -60 0 -60 0 0 138 c0 114 4 144 20 180 l19 43 38 -25 c79 -50
180 -60 223 -21 48 43 42 132 -11 169 -39 27 -117 21 -185 -14 -32 -16 -62
-30 -65 -30 -14 0 -39 83 -39 130 l0 49 48 3 c95 6 247 -4 277 -19z m-48 -179
c15 -24 15 -29 2 -53 -23 -41 -100 -42 -168 0 -29 17 -32 22 -20 34 28 27 75
45 121 45 40 0 50 -4 65 -26z"/>
<path style="fill: #e32e21;" d="M756 994 c-21 -20 -20 -58 0 -79 25 -24 75 -16 93 16 13 24 13 29 -2
53 -20 30 -66 35 -91 10z"/>
<path style="fill: #e32e21;" d="M1084 814 c-21 -15 -40 -30 -42 -35 -8 -20 -22 -7 -22 21 0 28 -3 30
-35 30 l-35 0 0 -190 0 -190 35 0 35 0 0 116 c0 117 5 140 43 182 30 32 89 31
116 -4 19 -24 21 -40 21 -160 l0 -134 35 0 35 0 0 159 c0 154 -1 159 -25 185
-48 52 -103 59 -161 20z"/>
<path style="fill: #e32e21;" d="M1474 815 c-204 -102 -115 -395 113 -372 39 4 69 15 97 34 49 35 53
46 22 67 -24 15 -27 15 -62 -9 -45 -31 -106 -33 -151 -5 -34 20 -68 74 -58 90
4 6 73 10 166 10 87 0 159 4 159 8 0 35 -35 113 -62 139 -68 66 -143 79 -224
38z m167 -81 c16 -15 29 -33 29 -38 0 -7 -39 -10 -116 -8 l-116 3 15 22 c39
61 135 72 188 21z"/>
<path style="fill: #e32e21;" d="M1965 821 c-153 -70 -153 -303 0 -367 66 -27 127 -15 183 39 l32 31
0 -37 c0 -36 1 -37 35 -37 l35 0 0 190 0 190 -35 0 c-33 0 -35 -2 -35 -35 0
-39 -9 -45 -27 -16 -15 23 -91 61 -124 61 -13 0 -42 -9 -64 -19z m138 -65
c102 -43 115 -171 24 -226 -112 -69 -245 59 -179 172 16 28 79 67 110 68 7 0
27 -6 45 -14z"/>
<path style="fill: #e32e21;" d="M2435 826 c-47 -21 -68 -50 -68 -97 0 -50 13 -63 100 -109 83 -44 97
-64 64 -91 -28 -23 -69 -25 -98 -4 -17 12 -27 13 -47 3 -34 -15 -33 -32 5 -59
88 -63 219 -9 219 90 -1 49 -24 76 -99 114 -73 37 -92 57 -72 81 17 20 53 20
89 2 25 -13 30 -12 51 3 30 23 22 37 -33 62 -48 22 -70 23 -111 5z"/>
<path style="fill: #e32e21;" d="M2793 815 c-64 -32 -102 -85 -110 -152 -21 -183 181 -290 335 -176
38 29 39 36 7 57 -23 15 -26 15 -61 -9 -66 -45 -155 -27 -194 38 -35 57 -35
57 145 57 l165 0 -6 28 c-20 93 -68 151 -141 171 -57 16 -84 13 -140 -14z
m168 -81 c16 -15 29 -31 29 -36 0 -4 -52 -8 -115 -8 -114 0 -116 0 -105 21 34
63 136 76 191 23z"/>
<path style="fill: #e32e21;" d="M760 641 l0 -191 40 0 40 0 -2 188 -3 187 -37 3 -38 3 0 -190z"/>
<path style="fill: #e32e21;" d="M100 355 l0 -25 610 0 610 0 0 25 0 25 -610 0 -610 0 0 -25z"/>
</g>
</svg>