<svg xmlns="http://www.w3.org/2000/svg" xmlns:xlink="http://www.w3.org/1999/xlink" version="1.1" id="Layer_1" x="0px" y="0px" viewBox="0 0 165 61.1" style="enable-background:new 0 0 165 61.1;" xml:space="preserve">
<g>
	<path d="M71.5,33.4c-0.2-0.7-0.5-1.4-0.9-1.9c-0.4-0.6-0.8-1-1.3-1.4s-1-0.7-1.6-1c-0.6-0.3-1.1-0.5-1.7-0.6   c-0.6-0.1-1.1-0.2-1.6-0.2l0,0H53.6c-0.9,0-1.6-0.3-2.1-0.8s-0.7-1.2-0.7-2.1s0.2-1.6,0.7-2.1s1.2-0.8,2.1-0.8h18.2v-4.7H53.6   c-0.8,0-1.6,0.1-2.4,0.4c-0.9,0.3-1.7,0.7-2.4,1.3c-0.7,0.6-1.4,1.4-1.9,2.4s-0.7,2.1-0.7,3.5s0.2,2.6,0.7,3.6s1.1,1.8,1.9,2.4   c0.7,0.6,1.6,1,2.4,1.3c0.9,0.3,1.7,0.4,2.4,0.4h10.7c0.4,0,0.8,0.1,1.2,0.2s0.7,0.3,0.9,0.6c0.2,0.3,0.4,0.6,0.6,0.9   c0.1,0.4,0.2,0.8,0.2,1.2c0,0.9-0.2,1.6-0.7,2.1s-1.2,0.8-2.1,0.8H46.1v4.7h18.2c0.5,0,1-0.1,1.6-0.2c0.6-0.1,1.1-0.3,1.7-0.6   c0.6-0.3,1.1-0.6,1.6-1s1-0.9,1.3-1.4c0.4-0.6,0.7-1.2,0.9-2c0.2-0.7,0.4-1.6,0.4-2.5C71.9,35,71.8,34.1,71.5,33.4z"/>
	<rect x="74.8" y="17.7" width="4.7" height="25.8"/>
	<polygon points="107.8,17.7 82.5,17.7 82.5,22.4 92.8,22.4 92.8,43.5 97.5,43.5 97.5,22.4 107.8,22.4  "/>
	<polygon points="134.2,22.4 134.2,17.7 110.7,17.7 110.7,43.5 134.2,43.5 134.2,38.8 115.4,38.8 115.4,33.2 134.1,33.2 134.1,28.5    115.4,28.5 115.4,22.4  "/>
	<polygon points="142.9,17.7 136.5,17.7 147.6,30.6 136.6,43.5 142.9,43.5 150.7,34.3 158.6,43.5 164.9,43.5 153.9,30.6 165,17.7    158.6,17.7 150.7,26.9  "/>
</g>
<g>
	<polygon points="34.2,20.2 34.2,45.6 15.5,45.6 29.5,31.5 29.5,24.9 0,54.4 0,61.1 10.8,50.3 34.2,50.3 35.8,50.3 38.9,50.3    38.9,15.6  "/>
	<polygon points="28.1,10.8 4.7,10.8 4.7,10.8 0,10.8 0,45.4 4.7,40.8 4.7,15.5 23.4,15.5 9.4,29.5 9.4,36.2 38.9,6.6 38.9,0  "/>
</g>
</svg>